<svg xmlns="http://www.w3.org/2000/svg" width="24" height="24" viewBox="0 0 24 24" fill="none"><path d="M7 7.5L9.942 9.24C11.657 10.254 12.342 10.254 14.058 9.24L17 7.5" stroke="white" stroke-width="2" stroke-linecap="round" stroke-linejoin="round"></path><path d="M10.5 19.5001C10.033 19.4939 9.56595 19.4849 9.09901 19.4731C5.95001 19.3941 4.37601 19.3551 3.24501 18.2181C2.11401 17.0821 2.08101 15.5481 2.01501 12.4811C1.99394 11.4969 1.99394 10.5123 2.01501 9.52808C2.08101 6.46108 2.11401 4.92808 3.24501 3.79108C4.37601 2.65508 5.95001 2.61608 9.09901 2.53708C11.0327 2.48829 12.9673 2.48829 14.901 2.53708C18.05 2.61608 19.624 2.65508 20.755 3.79108C21.886 4.92708 21.919 6.46108 21.985 9.52808C21.994 9.98308 21.999 10.1961 22 10.5001" stroke="white" stroke-width="2" stroke-linecap="round" stroke-linejoin="round"></path><path d="M19 17C19 17.3978 18.842 17.7794 18.5607 18.0607C18.2794 18.342 17.8978 18.5 17.5 18.5C17.1022 18.5 16.7206 18.342 16.4393 18.0607C16.158 17.7794 16 17.3978 16 17C16 16.6022 16.158 16.2206 16.4393 15.9393C16.7206 15.658 17.1022 15.5 17.5 15.5C17.8978 15.5 18.2794 15.658 18.5607 15.9393C18.842 16.2206 19 16.6022 19 17ZM19 17V17.5C19 17.8978 19.158 18.2794 19.4393 18.5607C19.7206 18.842 20.1022 19 20.5 19C20.8978 19 21.2794 18.842 21.5607 18.5607C21.842 18.2794 22 17.8978 22 17.5V17C22 16.11 21.7361 15.24 21.2416 14.4999C20.7471 13.7599 20.0443 13.1831 19.2221 12.8425C18.3998 12.5019 17.495 12.4128 16.6221 12.5865C15.7492 12.7601 14.9474 13.1887 14.318 13.818C13.6887 14.4474 13.2601 15.2492 13.0865 16.1221C12.9128 16.995 13.0019 17.8998 13.3425 18.7221C13.6831 19.5443 14.2599 20.2471 14.9999 20.7416C15.74 21.2361 16.61 21.5 17.5 21.5" stroke="white" stroke-width="2" stroke-linecap="round" stroke-linejoin="round"></path></svg>