<svg xmlns="http://www.w3.org/2000/svg" width="44" height="48" viewBox="0 0 44 48" fill="none"><path d="M39.2946 8.5767C42.1952 10.2574 43.9826 13.3575 43.9858 16.7132L44 31.3112C44.0032 34.6768 42.2115 37.7878 39.3009 39.4706L26.7289 46.7391C23.8183 48.4219 20.232 48.4202 17.3231 46.7345L4.70526 39.4233C1.80475 37.7425 0.0173849 34.6425 0.0141365 31.2868L4.4328e-06 16.6888C-0.00325251 13.3232 1.78844 10.2121 4.69901 8.52938L17.2711 1.26084C20.1816 -0.42191 23.768 -0.42017 26.6769 1.26541L39.2946 8.5767Z" fill="#6D05F2"></path><path d="M33.6668 24.0002C33.6668 17.5602 28.4402 12.3335 22.0002 12.3335C15.5602 12.3335 10.3335 17.5602 10.3335 24.0002C10.3335 29.6468 14.3468 34.3485 19.6668 35.4335V27.5002H17.3335V24.0002H19.6668V21.0835C19.6668 18.8318 21.4985 17.0002 23.7502 17.0002H26.6668V20.5002H24.3335C23.6918 20.5002 23.1668 21.0252 23.1668 21.6668V24.0002H26.6668V27.5002H23.1668V35.6085C29.0585 35.0252 33.6668 30.0552 33.6668 24.0002Z" fill="white"></path></svg>