<svg xmlns="http://www.w3.org/2000/svg" width="44" height="48" viewBox="0 0 44 48" fill="none"><path d="M39.2946 8.5767C42.1952 10.2574 43.9826 13.3575 43.9858 16.7132L44 31.3112C44.0032 34.6768 42.2115 37.7878 39.3009 39.4706L26.7289 46.7391C23.8183 48.4219 20.232 48.4202 17.3231 46.7345L4.70526 39.4233C1.80475 37.7425 0.0173849 34.6425 0.0141365 31.2868L4.4328e-06 16.6888C-0.00325251 13.3232 1.78844 10.2121 4.69901 8.52938L17.2711 1.26084C20.1816 -0.42191 23.768 -0.42017 26.6769 1.26541L39.2946 8.5767Z" fill="#6D05F2"></path><path d="M35.8332 21.8335H33.4998V19.5002H31.1665V21.8335H28.8332V24.1668H31.1665V26.5002H33.4998V24.1668H35.8332M18.3332 21.8335V24.6335H22.9998C22.7665 25.8002 21.5998 28.1335 18.3332 28.1335C15.5332 28.1335 13.3165 25.8002 13.3165 23.0002C13.3165 20.2002 15.5332 17.8668 18.3332 17.8668C19.9665 17.8668 21.0165 18.5668 21.5998 19.1502L23.8165 17.0502C22.4165 15.6502 20.5498 14.8335 18.3332 14.8335C13.7832 14.8335 10.1665 18.4502 10.1665 23.0002C10.1665 27.5502 13.7832 31.1668 18.3332 31.1668C22.9998 31.1668 26.1498 27.9002 26.1498 23.2335C26.1498 22.6502 26.1498 22.3002 26.0332 21.8335H18.3332Z" fill="white"></path></svg>