<svg xmlns="http://www.w3.org/2000/svg" width="44" height="48" viewBox="0 0 44 48" fill="none"><path d="M39.2946 8.5767C42.1952 10.2574 43.9826 13.3575 43.9858 16.7132L44 31.3112C44.0032 34.6768 42.2115 37.7878 39.3009 39.4706L26.7289 46.7391C23.8183 48.4219 20.232 48.4202 17.3231 46.7345L4.70526 39.4233C1.80475 37.7425 0.0173849 34.6425 0.0141365 31.2868L4.4328e-06 16.6888C-0.00325251 13.3232 1.78844 10.2121 4.69901 8.52938L17.2711 1.26084C20.1816 -0.42191 23.768 -0.42017 26.6769 1.26541L39.2946 8.5767Z" fill="#6D05F2"></path><path d="M17.1002 12.3335H26.9002C30.6335 12.3335 33.6668 15.3668 33.6668 19.1002V28.9002C33.6668 30.6948 32.9539 32.4159 31.6849 33.6849C30.4159 34.9539 28.6948 35.6668 26.9002 35.6668H17.1002C13.3668 35.6668 10.3335 32.6335 10.3335 28.9002V19.1002C10.3335 17.3055 11.0464 15.5844 12.3154 14.3154C13.5844 13.0464 15.3055 12.3335 17.1002 12.3335ZM16.8668 14.6668C15.7529 14.6668 14.6846 15.1093 13.897 15.897C13.1093 16.6846 12.6668 17.7529 12.6668 18.8668V29.1335C12.6668 31.4552 14.5452 33.3335 16.8668 33.3335H27.1335C28.2474 33.3335 29.3157 32.891 30.1033 32.1033C30.891 31.3157 31.3335 30.2474 31.3335 29.1335V18.8668C31.3335 16.5452 29.4552 14.6668 27.1335 14.6668H16.8668ZM28.1252 16.4168C28.5119 16.4168 28.8829 16.5705 29.1564 16.844C29.4299 17.1175 29.5835 17.4884 29.5835 17.8752C29.5835 18.2619 29.4299 18.6329 29.1564 18.9064C28.8829 19.1799 28.5119 19.3335 28.1252 19.3335C27.7384 19.3335 27.3675 19.1799 27.094 18.9064C26.8205 18.6329 26.6668 18.2619 26.6668 17.8752C26.6668 17.4884 26.8205 17.1175 27.094 16.844C27.3675 16.5705 27.7384 16.4168 28.1252 16.4168ZM22.0002 18.1668C23.5473 18.1668 25.031 18.7814 26.125 19.8754C27.2189 20.9693 27.8335 22.4531 27.8335 24.0002C27.8335 25.5473 27.2189 27.031 26.125 28.125C25.031 29.2189 23.5473 29.8335 22.0002 29.8335C20.4531 29.8335 18.9693 29.2189 17.8754 28.125C16.7814 27.031 16.1668 25.5473 16.1668 24.0002C16.1668 22.4531 16.7814 20.9693 17.8754 19.8754C18.9693 18.7814 20.4531 18.1668 22.0002 18.1668ZM22.0002 20.5002C21.0719 20.5002 20.1817 20.8689 19.5253 21.5253C18.8689 22.1817 18.5002 23.0719 18.5002 24.0002C18.5002 24.9284 18.8689 25.8187 19.5253 26.475C20.1817 27.1314 21.0719 27.5002 22.0002 27.5002C22.9284 27.5002 23.8187 27.1314 24.475 26.475C25.1314 25.8187 25.5002 24.9284 25.5002 24.0002C25.5002 23.0719 25.1314 22.1817 24.475 21.5253C23.8187 20.8689 22.9284 20.5002 22.0002 20.5002Z" fill="white"></path></svg>