<svg xmlns="http://www.w3.org/2000/svg" width="44" height="48" viewBox="0 0 44 48" fill="none"><path d="M39.2946 8.5767C42.1952 10.2574 43.9826 13.3575 43.9858 16.7132L44 31.3112C44.0032 34.6768 42.2115 37.7878 39.3009 39.4706L26.7289 46.7391C23.8183 48.4219 20.232 48.4202 17.3231 46.7345L4.70526 39.4233C1.80475 37.7425 0.0173849 34.6425 0.0141365 31.2868L4.4328e-06 16.6888C-0.00325251 13.3232 1.78844 10.2121 4.69901 8.52938L17.2711 1.26084C20.1816 -0.42191 23.768 -0.42017 26.6769 1.26541L39.2946 8.5767Z" fill="#6D05F2"></path><path d="M15.0964 13.8335C15.096 14.4524 14.8499 15.0457 14.4121 15.4831C13.9743 15.9205 13.3807 16.166 12.7619 16.1657C12.143 16.1654 11.5496 15.9193 11.1123 15.4814C10.6749 15.0436 10.4294 14.45 10.4297 13.8312C10.43 13.2124 10.6761 12.619 11.1139 12.1816C11.5517 11.7442 12.1453 11.4987 12.7642 11.499C13.383 11.4993 13.9764 11.7455 14.4138 12.1833C14.8511 12.6211 15.0967 13.2147 15.0964 13.8335ZM15.1664 17.8935H10.4997V32.5002H15.1664V17.8935ZM22.5397 17.8935H17.8964V32.5002H22.493V24.8352C22.493 20.5652 28.058 20.1685 28.058 24.8352V32.5002H32.6664V23.2485C32.6664 16.0502 24.4297 16.3185 22.493 19.8535L22.5397 17.8935Z" fill="white"></path></svg>