<svg xmlns="http://www.w3.org/2000/svg" width="24" height="24" viewBox="0 0 24 24" fill="none"><path d="M14.5 10C14.07 8.554 12.585 7.5 11 7.5C10.0717 7.5 9.1815 7.86875 8.52513 8.52513C7.86875 9.1815 7.5 10.0717 7.5 11C7.5 12.763 8.804 14.257 10.5 14.5" stroke="white" stroke-width="2" stroke-linecap="round" stroke-linejoin="round"></path><path d="M19.95 10C19.47 5.534 15.56 2 11 2C6.13 2 2 6.033 2 10.926C2 15.914 6.204 19.362 10.073 21.756C10.356 21.9153 10.6753 21.999 11 21.999C11.3247 21.999 11.644 21.9153 11.927 21.756C12.1817 21.6007 12.4373 21.4403 12.694 21.275" stroke="white" stroke-width="2" stroke-linecap="round" stroke-linejoin="round"></path><path d="M17.5 16.5H17.509M17.5 12C19.935 12 22 14.017 22 16.463C22 18.948 19.902 20.693 17.964 21.878C17.8227 21.9581 17.663 22.0002 17.5005 22.0002C17.338 22.0002 17.1783 21.9581 17.037 21.878C15.102 20.681 13 18.957 13 16.463C13 14.016 15.065 12 17.5 12Z" stroke="white" stroke-width="2" stroke-linecap="round" stroke-linejoin="round"></path></svg>